<svg width="109" height="84" viewBox="0 0 109 84" fill="none" xmlns="http://www.w3.org/2000/svg">
<path d="M51.1074 5.13379C52.4968 3.09473 55.5034 3.09459 56.8926 5.13379L91.5625 56.0293C93.1452 58.3527 91.4811 61.4998 88.6699 61.5H81.1641C79.9827 61.5 78.8808 60.9038 78.2344 59.915L57.2666 27.8467C55.4904 25.1302 51.5096 25.1302 49.7334 27.8467L28.7656 59.915C28.1192 60.9038 27.0173 61.5 25.8359 61.5H19.3232C16.5119 61.5 14.8478 58.3527 16.4307 56.0293L51.1074 5.13379Z" fill="white" stroke="black" stroke-linejoin="round"/>
<path d="M14.6309 65.5H51.834C54.5733 65.5003 56.2503 68.5052 54.8125 70.8369L54.2617 71.7305L47.7666 81.8857C47.1234 82.8914 46.0121 83.5 44.8184 83.5H7.41016C4.62613 83.4999 2.95664 80.4066 4.48438 78.0791L11.7051 67.0791C12.3521 66.0936 13.4519 65.5 14.6309 65.5Z" fill="#2B7FFF" stroke="black" stroke-linejoin="round"/>
<path d="M66.8877 65.5H95.1123C96.3298 65.5 97.4603 66.1329 98.0967 67.1709L104.84 78.1709C106.269 80.503 104.591 83.5 101.855 83.5H60.1445C57.4091 83.5 55.7306 80.503 57.1602 78.1709L63.9033 67.1709C64.5397 66.1329 65.6702 65.5 66.8877 65.5Z" fill="white" stroke="black" stroke-linejoin="round"/>
</svg>
