<svg width="134" height="134" viewBox="0 0 134 134" fill="none" xmlns="http://www.w3.org/2000/svg">
<rect width="134" height="134" rx="17" fill="#193CB8"/>
<path d="M63.694 25.8523C65.2818 23.5218 68.7179 23.5219 70.3056 25.8525L104.976 76.7481C106.784 79.4034 104.883 83 101.67 83H94.1638C92.8137 83 91.5547 82.319 90.8159 81.189L69.8479 49.1203C68.2691 46.7056 64.7309 46.7056 63.1521 49.1203L42.1841 81.189C41.4453 82.319 40.1863 83 38.8362 83H32.3233C29.1102 83 27.2085 79.4031 29.0176 76.7478L63.694 25.8523Z" fill="white"/>
<path d="M24.2867 87.805C25.0262 86.6785 26.2832 86 27.6307 86H64.8336C67.9646 86 69.8817 89.4347 68.2382 92.0997L67.6829 93L61.188 103.155C60.4529 104.305 59.1826 105 57.8183 105H20.4103C17.2285 105 15.3203 101.465 17.0664 98.805L24.2867 87.805Z" fill="white"/>
<path d="M76.4775 87.9094C77.2047 86.7231 78.4962 86 79.8876 86H108.112C109.504 86 110.795 86.7231 111.523 87.9094L118.266 98.9094C119.9 101.575 117.982 105 114.856 105H73.144C70.0178 105 68.0999 101.575 69.7339 98.9094L76.4775 87.9094Z" fill="white"/>
</svg>
